<svg width="20" height="16" viewBox="0 0 20 16" fill="none" xmlns="http://www.w3.org/2000/svg">
<path d="M0 14.0005V11.0005C0 10.1672 0.291667 9.45882 0.875 8.87549C1.45833 8.29215 2.16667 8.00049 3 8.00049H4V2.00049C4 1.45049 4.19583 0.979655 4.5875 0.587988C4.97917 0.196322 5.45 0.000488281 6 0.000488281H14C14.55 0.000488281 15.0208 0.196322 15.4125 0.587988C15.8042 0.979655 16 1.45049 16 2.00049V8.00049H17C17.8333 8.00049 18.5417 8.29215 19.125 8.87549C19.7083 9.45882 20 10.1672 20 11.0005V14.0005C20 14.5505 19.8042 15.0213 19.4125 15.413C19.0208 15.8047 18.55 16.0005 18 16.0005H2C1.45 16.0005 0.979167 15.8047 0.5875 15.413C0.195833 15.0213 0 14.5505 0 14.0005ZM6 8.00049H14V2.00049H6V8.00049ZM16 13.0005C16.2833 13.0005 16.5208 12.9047 16.7125 12.713C16.9042 12.5213 17 12.2838 17 12.0005C17 11.7172 16.9042 11.4797 16.7125 11.288C16.5208 11.0963 16.2833 11.0005 16 11.0005C15.7167 11.0005 15.4792 11.0963 15.2875 11.288C15.0958 11.4797 15 11.7172 15 12.0005C15 12.2838 15.0958 12.5213 15.2875 12.713C15.4792 12.9047 15.7167 13.0005 16 13.0005Z" fill="#DDE5ED"/>
</svg>
