<svg width="34" height="57" viewBox="0 0 34 57" fill="none" xmlns="http://www.w3.org/2000/svg">
  <g clip-path="url(#clip0_537_365)">
    <path
      d="M0 25.6826V45.4242V51.2054C0 56.3539 6.24872 58.9315 9.9083 55.2949C9.9083 45.4508 9.9083 25.6493 9.9083 15.8119L0 25.6826Z"
      fill="#ffffff" />
    <path
      d="M12.0418 13.3608C12.0418 23.1983 12.0418 42.9998 12.0418 52.8372L21.9502 42.9731C21.9502 33.129 21.9502 13.3275 21.9502 3.49007L12.0352 13.3608H12.0418Z"
      fill="#ffffff" />
    <path
      d="M24.0848 1.70509C24.0848 11.5426 24.0848 31.344 24.0848 41.1815L33.9931 31.3174V11.5759V5.79459C33.9931 0.646078 27.7377 -1.93817 24.0781 1.70509H24.0848Z"
      fill="#ffffff" />
  </g>
  <defs>
    <clipPath id="clip0_537_365">
      <rect width="34" height="57" fill="white" />
    </clipPath>
  </defs>
</svg>